# AST/ASF file generated using VICON BodyLanguage
# -----------------------------------------------
:version 1.10
:name VICON
:units
  mass 1.0
  length 0.45
  angle deg
:documentation
   .ast/.asf automatically generated from VICON data using
   VICON BodyBuilder and BodyLanguage model FoxedUp or BRILLIANT.MOD
:root
   order TX TY TZ RX RY RZ
   axis XYZ
   position 0 0 0  
   orientation 0 0 0 
:bonedata
  begin
     id 1 
     name lhipjoint
     direction 0.521689 -0.742065 0.420928 
     length 2.47002 
     axis 0 0 0  XYZ
  end
  begin
     id 2 
     name lfemur
     direction 0.34202 -0.939693 0  
     length 7.24654  
     axis 0 0 20  XYZ
    dof rx ry rz
    limits (-160.0 20.0)
           (-70.0 70.0)
           (-60.0 70.0)
  end
  begin
     id 3 
     name ltibia
     direction 0.34202 -0.939693 0   
     length 8.04849   
     axis 0 0 20   XYZ
    dof rx
    limits (-10.0 170.0)
  end
  begin
     id 4 
     name lfoot
     direction 0.0745411 -0.2048 0.975961   
     length 1.72367   
     axis -90 7.62852e-016 20   XYZ
    dof rx rz
    limits (-45.0 90.0)
           (-70.0 20.0)
  end
  begin
     id 5 
     name ltoes
     direction 1.53556e-011 -4.21901e-011 1   
     length 0.87311   
     axis -90 7.62852e-016 20   XYZ
    dof rx
    limits (-90.0 20.0)
  end
  begin
     id 6 
     name rhipjoint
     direction -0.52849 -0.738415 0.418857   
     length 2.48223  
     axis 0 0 0  XYZ 
  end
  begin
     id 7 
     name rfemur
     direction -0.34202 -0.939693 0   
     length 7.15571   
     axis 0 0 -20   XYZ
    dof rx ry rz
    limits (-160.0 20.0)
           (-70.0 70.0)
           (-70.0 60.0)
  end
  begin
     id 8 
     name rtibia
     direction -0.34202 -0.939693 0   
     length 7.81659   
     axis 0 0 -20   XYZ
    dof rx
    limits (-10.0 170.0)
 end
 begin
     id 9 
     name rfoot
     direction -0.0917348 -0.252039 0.963359   
     length 1.84382  
     axis -90 -7.62852e-016 -20   XYZ
    dof rx rz
    limits (-45.0 90.0)
           (-20.0 70.0)
  end
  begin
     id 10 
     name rtoes
     direction -1.53551e-011 -4.21879e-011 1   
     length 0.927771   
     axis -90 -7.62852e-016 -20   XYZ
    dof rx
    limits (-90.0 20.0)
  end
  begin
     id 11 
     name lowerback
     direction 0.00583058 0.999822 0.0179296   
     length 2.1429   
     axis 0 0 0   XYZ
    dof rx ry rz
    limits (-20.0 45.0)
           (-30.0 30.0)
           (-30.0 30.0)
  end
  begin
     id 12 
     name upperback
     direction -0.0137999 0.999752 -0.0175071   
     length 2.14252   
     axis 0 0 0   XYZ
    dof rx ry rz
    limits (-20.0 45.0)
           (-30.0 30.0)
           (-30.0 30.0)
  end
  begin
     id 13 
     name thorax
     direction -0.0158036 0.99955 -0.0254909   
     length 2.1383   
     axis 0 0 0   XYZ
    dof rx ry rz
    limits (-20.0 45.0)
           (-30.0 30.0)
           (-30.0 30.0)
  end
  begin
     id 14 
     name lowerneck
     direction -0.0101179 0.999403 -0.0330262   
     length 1.65808   
     axis 0 0 0   XYZ
    dof rx ry rz
    limits (-20.0 45.0)
           (-30.0 30.0)
           (-30.0 30.0)
  end
  begin
     id 15 
     name upperneck
     direction 0.0497734 0.995978 -0.074501   
     length 1.5897   
     axis 0 0 0   XYZ
    dof rx ry rz
    limits (-20.0 45.0)
           (-30.0 30.0)
           (-30.0 30.0)
  end
  begin
     id 16
     name head
     direction 0.0189524 0.999519 -0.0245438  
     length 1.74024  
     axis 0 0 0   XYZ
    dof rx ry rz
    limits (-20.0 45.0)
           (-30.0 30.0)
           (-30.0 30.0)
  end
  begin
     id 17 
     name lclavicle
     direction 0.945604 0.324422 0.0241537  
     length 3.59089  
     axis 0 0 0   XYZ
    dof ry rz
    limits (-20.0 10.0)
           (0.0 20.0)
  end
  begin
     id 18 
     name lhumerus
     direction 1 -4.48964e-011 -2.63524e-027   
     length 5.2391   
     axis 180 -30 -90   XYZ
    dof rx ry rz
    limits (-60.0 90.0)
           (-90.0 90.0)
           (-90.0 90.0)
  end
  begin
     id 19
     name lradius
     direction 1 -4.48969e-011 3.86978e-028   
     length 3.31467   
     axis 180 -30 -90   XYZ
    dof rx
    limits (-10.0 170.0)
  end
  begin
     id 20
     name lwrist
     direction 1 -4.48963e-011 7.20928e-028   
     length 1.65734   
     axis -5.52449e-016 90 90   XYZ
    dof ry
    limits (-180.0 0.0)
 end
  begin
     id 21 
     name lhand
     direction 1 -4.48964e-011 1.44186e-027   
     length 0.9659   
     axis -9.20027e-016 90 90   XYZ
    dof rx rz
    limits (-90.0 90.0)
           (-45.0 45.0)
  end
  begin
     id 22 
     name lfingers
     direction 1 -4.48965e-011 2.88371e-027   
     length 0.778733   
     axis -1.84005e-015 90 90   XYZ
    dof rx
    limits (0.0 90.0)
  end
  begin
     id 23
     name lthumb
     direction 0.707107 -6.34931e-011 0.707107   
     length 1.11811   
     axis -90 45 2.85299e-015   XYZ
    dof rx rz
    limits (-45.0 45.0)
           (-45.0 45.0)
  end
  begin
     id 24 
     name rclavicle
     direction -0.923762 0.370785 0.0958234   
     length 3.54196  
     axis 0 0 0   XYZ 
    dof ry rz
    limits (-10.0 20.0)
           (-20.0 0.0)
  end
  begin
     id 25 
     name rhumerus
     direction -1 -4.48966e-011 1.18702e-017  
     length 5.30252   
     axis 180 30 90   XYZ
    dof rx ry rz
    limits (-90.0 60.0)
           (-90.0 90.0)
           (-90.0 90.0)
  end
  begin
     id 26 
     name rradius
     direction -1 -4.48966e-011 4.46736e-027   
     length 3.67875   
     axis 180 30 90   XYZ
    dof rx
    limits (-10.0 170.0)
  end
  begin
     id 27 
     name rwrist
     direction -1 -4.48966e-011 7.20928e-028   
     length 1.83937   
     axis -5.52449e-016 -90 -90   XYZ
    dof ry
    limits (-180.0 0.0)
  end
  begin
     id 28
     name rhand
     direction -1 -4.48973e-011 1.44186e-027   
     length 0.594811   
     axis -9.20027e-016 -90 -90   XYZ
    dof rx rz
    limits (-90.0 90.0)
           (-45.0 45.0)
  end
  begin
     id 29
     name rfingers
     direction -1 -4.48963e-011 2.88371e-027   
     length 0.479552   
     axis -1.84005e-015 -90 -90   XYZ
    dof rx
    limits (0.0 90.0)
  end
  begin
     id 30
     name rthumb
     direction -0.707107 -6.34932e-011 0.707107   
     length 0.688544   
     axis -90 -45 -2.85299e-015   XYZ
    dof rx rz
    limits (-45.0 45.0)
           (-45.0 45.0)
  end
:hierarchy
  begin
    root lhipjoint rhipjoint lowerback
    lhipjoint lfemur
    lfemur ltibia
    ltibia lfoot
    lfoot ltoes
    rhipjoint rfemur
    rfemur rtibia
    rtibia rfoot
    rfoot rtoes
    lowerback upperback
    upperback thorax
    thorax lowerneck lclavicle rclavicle
    lowerneck upperneck
    upperneck head
    lclavicle lhumerus
    lhumerus lradius
    lradius lwrist
    lwrist lhand lthumb
    lhand lfingers
    rclavicle rhumerus
    rhumerus rradius
    rradius rwrist
    rwrist rhand rthumb
    rhand rfingers
  end

#!OML:ASF E:\acrobat2\Project_11_07_03\Capture day 1\Session 1\Acrobat.ASF
:FULLY-SPECIFIED
:DEGREES
194
root 9.09677 18.0056 -32.1905 104.913 -88.6808 -100.241
lowerback -6.63647 0.88003 3.0836
upperback -4.09549 0.89892 -0.634496
thorax -0.445883 0.342721 -2.32787
lowerneck -3.41342 3.69836 1.41912
upperneck 8.79432 4.47534 3.64766
head 3.37802 2.37553 1.11969
rclavicle 1.56543e-015 7.95139e-016
rhumerus -13.2429 -27.6983 -6.86203
rradius 21.1869
rwrist 17.98
rhand -6.87035 -50.0285
rfingers 7.12502
rthumb 18.9955 -79.121
lclavicle 1.56543e-015 7.95139e-016
lhumerus 1.75859 12.9879 7.61146
lradius 20.0319
lwrist 3.03406
lhand -6.96721 -5.48876
lfingers 7.12502
lthumb 18.9024 23.6128
rfemur 7.20008 16.3907 14.7065
rtibia -2.42744
rfoot -24.4404 -29.2922
rtoes 1.73141
lfemur 7.71375 -8.72569 -6.05073
ltibia -2.57986
lfoot -28.7675 5.56973
ltoes 41.7651
195
root 9.09731 18.0054 -32.1915 104.478 -88.6639 -99.8114
lowerback -6.62057 0.892753 3.11973
upperback -4.08872 0.914859 -0.655722
thorax -0.44596 0.350114 -2.3692
lowerneck -3.44206 3.65879 1.47252
upperneck 8.82978 4.41808 3.62407
head 3.39845 2.34844 1.10221
rclavicle -4.29872e-015 -8.74653e-015
rhumerus -13.3288 -27.7351 -6.8443
rradius 21.1916
rwrist 17.9789
rhand -6.9269 -49.9195
rfingers 7.12502
rthumb 18.9411 -79.0173
lclavicle -4.29872e-015 -8.74653e-015
lhumerus 1.79068 12.6588 7.54271
lradius 20.0777
lwrist 3.41775
lhand -6.95908 -5.39461
lfingers 7.12502
lthumb 18.9102 23.7062
rfemur 7.20358 16.336 14.7276
rtibia -2.43355
rfoot -24.3214 -29.3559
rtoes 0.572368
lfemur 7.71911 -8.73917 -6.02543
ltibia -2.57519
lfoot -28.953 4.70045
ltoes 43.7173
196
root 9.09723 18.0055 -32.1927 104.174 -88.6749 -99.5185
lowerback -6.6117 0.884654 3.09902
upperback -4.07731 0.905906 -0.664364
thorax -0.439774 0.34638 -2.36706
lowerneck -3.48852 3.64375 1.51334
upperneck 8.89044 4.39412 3.59202
head 3.4305 2.33759 1.08645
rclavicle 3.42904e-015 5.56597e-015
rhumerus -13.3606 -27.8632 -6.85088
rradius 21.1955
rwrist 18.1257
rhand -6.8868 -49.8758
rfingers 7.12502
rthumb 18.9797 -78.9698
lclavicle 3.42904e-015 5.56597e-015
lhumerus 1.77625 12.4356 7.49276
lradius 20.1084
lwrist 3.67215
lhand -6.99507 -5.41921
lfingers 7.12502
lthumb 18.8756 23.685
rfemur 7.22686 16.3421 14.7328
rtibia -2.44251
rfoot -24.2178 -29.3455
rtoes 1.00694
lfemur 7.71833 -8.65911 -6.01928
ltibia -2.54281
lfoot -28.8171 5.15238
ltoes 42.5901
197
root 9.0969 18.0053 -32.1935 104.636 -88.676 -99.9829
lowerback -6.61654 0.88823 3.094
upperback -4.06589 0.911032 -0.665131
thorax -0.425021 0.349584 -2.36458
lowerneck -3.51744 3.6318 1.4597
upperneck 8.91351 4.37642 3.63412
head 3.4421 2.32911 1.11007
rclavicle -4.96962e-015 3.18055e-015
rhumerus -13.3673 -27.9603 -6.84319
rradius 21.1774
rwrist 18.1927
rhand -6.87801 -49.8899
rfingers 7.12502
rthumb 18.9881 -78.9831
lclavicle -4.96962e-015 3.18055e-015
lhumerus 1.75493 12.2312 7.46909
lradius 20.1357
lwrist 3.88743
lhand -7.04878 -5.50364
lfingers 7.12502
lthumb 18.8239 23.6055
rfemur 7.20977 16.2245 14.7169
rtibia -2.43714
rfoot -23.896 -29.346
rtoes 0.693106
lfemur 7.72617 -8.60271 -6.00827
ltibia -2.55467
lfoot -28.6191 5.97552
ltoes 40.6995
198
root 9.09675 18.0047 -32.195 105.644 -88.6429 -100.994
lowerback -6.61476 0.919147 3.13093
upperback -4.06274 0.950384 -0.674559
thorax -0.419644 0.368736 -2.39257
lowerneck -3.47607 3.58501 1.45456
upperneck 8.86751 4.31633 3.63721
head 3.41872 2.2984 1.10743
rclavicle 7.45443e-017 2.38542e-015
rhumerus -13.4433 -28.0499 -6.80411
rradius 21.1649
rwrist 18.2469
rhand -6.88779 -49.8472
rfingers 7.12502
rthumb 18.9787 -78.9412
lclavicle 7.45443e-017 2.38542e-015
lhumerus 1.75297 12.0069 7.4474
lradius 20.1984
lwrist 4.13507
lhand -7.12305 -5.55011
lfingers 7.12502
lthumb 18.7525 23.566
rfemur 7.18251 16.1538 14.7398
rtibia -2.41776
rfoot -23.732 -29.3234
rtoes 0.316503
lfemur 7.75051 -8.5721 -5.96237
ltibia -2.5913
lfoot -28.5671 6.14337
ltoes 40.3885
199
root 9.09597 18.0051 -32.1989 108.132 -88.705 -103.478
lowerback -6.6289 0.935054 3.05417
upperback -4.0615 0.975299 -0.728744
thorax -0.409057 0.382108 -2.40356
lowerneck -3.41571 3.55121 1.53455
upperneck 8.78611 4.27182 3.6139
head 3.38182 2.27662 1.08084
rclavicle -1.98785e-015 9.93923e-016
rhumerus -13.523 -28.0483 -6.83668
rradius 21.1694
rwrist 18.2636
rhand -6.95619 -49.7462
rfingers 7.12502
rthumb 18.913 -78.8467
lclavicle -1.98785e-015 9.93923e-016
lhumerus 1.77406 11.962 7.41745
lradius 20.2384
lwrist 4.24545
lhand -7.14405 -5.49781
lfingers 7.12502
lthumb 18.7323 23.6202
rfemur 7.16151 16.1785 14.6295
rtibia -2.39794
rfoot -23.8886 -29.1343
rtoes 1.36124
lfemur 7.75496 -8.51057 -6.03303
ltibia -2.57547
lfoot -28.5836 5.98197
ltoes 40.8322
200
root 9.09497 18.0053 -32.2018 110.548 -88.7652 -105.888
lowerback -6.65064 0.923406 2.98249
upperback -4.05225 0.963101 -0.763071
thorax -0.388631 0.377357 -2.39912
lowerneck -3.39351 3.54639 1.50365
upperneck 8.72806 4.26451 3.67834
head 3.35543 2.27356 1.105
rclavicle 6.90777e-015 0
rhumerus -13.5111 -27.9991 -6.92908
rradius 21.1762
rwrist 18.217
rhand -7.0158 -49.6823
rfingers 7.12502
rthumb 18.8556 -78.7884
lclavicle 6.90777e-015 0
lhumerus 1.74527 11.9632 7.37106
lradius 20.2648
lwrist 4.30706
lhand -7.02861 -5.38525
lfingers 7.12502
lthumb 18.8433 23.7221
rfemur 7.12505 16.0743 14.4971
rtibia -2.37074
rfoot -23.7282 -29.0146
rtoes 1.24384
lfemur 7.75275 -8.53348 -6.12145
ltibia -2.56109
lfoot -28.7344 5.38944
ltoes 42.2685
201
root 9.09457 18.0043 -32.2014 110.778 -88.7313 -106.095
lowerback -6.67348 0.933336 3.03857
upperback -4.05661 0.972259 -0.77156
thorax -0.379061 0.380834 -2.43858
lowerneck -3.33548 3.52299 1.45273
upperneck 8.643 4.23252 3.77575
head 3.31208 2.25811 1.14084
rclavicle 1.61513e-015 -1.19271e-015
rhumerus -13.5598 -27.9643 -6.95141
rradius 21.183
rwrist 18.1607
rhand -6.99713 -49.7745
rfingers 7.12502
rthumb 18.8736 -78.8789
lclavicle 1.61513e-015 -1.19271e-015
lhumerus 1.74492 11.947 7.37256
lradius 20.2791
lwrist 4.27076
lhand -6.90394 -5.43792
lfingers 7.12502
lthumb 18.9632 23.6577
rfemur 7.0624 15.9313 14.5083
rtibia -2.34024
rfoot -23.3643 -29.083
rtoes 0.0562787
lfemur 7.74391 -8.61671 -6.09906
ltibia -2.58735
lfoot -28.8962 4.97138
ltoes 43.1445
202
root 9.09442 18.0028 -32.2017 111.457 -88.7491 -106.722
lowerback -6.7367 0.977349 3.06918
upperback -4.05939 1.02685 -0.849214
thorax -0.341731 0.407134 -2.53165
lowerneck -3.32484 3.46728 1.54096
upperneck 8.58626 4.14888 3.82831
head 3.29261 2.22032 1.13808
rclavicle -5.96354e-016 3.97569e-015
rhumerus -13.7771 -27.9621 -6.91579
rradius 21.2067
rwrist 18.1095
rhand -6.95907 -49.8833
rfingers 7.12502
rthumb 18.9102 -78.9841
lclavicle -5.96354e-016 3.97569e-015
lhumerus 1.84701 11.8517 7.36371
lradius 20.312
lwrist 4.29697
lhand -6.84872 -5.53247
lfingers 7.12502
lthumb 19.0163 23.5579
rfemur 6.95988 15.7708 14.4249
rtibia -2.3137
rfoot -23.1842 -29.0706
rtoes -0.573862
lfemur 7.69663 -8.5601 -6.10679
ltibia -2.59589
lfoot -28.8089 5.45367
ltoes 41.8843
